<svg width="253" height="70" viewBox="0 0 253 70" fill="none" xmlns="http://www.w3.org/2000/svg">
<path d="M19.328 47.36H34.24V56H1.28V51.84L15.488 30.848H2.048V22.208H33.664V26.176L19.328 47.36ZM51.7695 21.44C57.9562 21.44 62.6708 22.8907 65.9135 25.792C69.1988 28.6933 70.8415 33.1307 70.8415 39.104V41.28H45.4975C45.4975 43.712 46.0308 45.5467 47.0975 46.784C48.2068 48.0213 49.9348 48.64 52.2815 48.64C54.4148 48.64 55.9722 48.192 56.9535 47.296C57.9775 46.4 58.4895 45.2053 58.4895 43.712H70.8415C70.8415 47.808 69.2842 51.008 66.1695 53.312C63.0548 55.616 58.5108 56.768 52.5375 56.768C46.2655 56.768 41.4015 55.3173 37.9455 52.416C34.4895 49.472 32.7615 45.0347 32.7615 39.104C32.7615 33.3013 34.4468 28.9067 37.8175 25.92C41.1882 22.9333 45.8388 21.44 51.7695 21.44ZM52.2815 29.568C48.2708 29.568 46.0308 31.4667 45.5615 35.264H57.9775C57.9775 33.5147 57.4655 32.128 56.4415 31.104C55.4602 30.08 54.0735 29.568 52.2815 29.568ZM95.801 21.44C99.7263 21.44 102.67 22.528 104.633 24.704C106.596 26.88 107.577 30.016 107.577 34.112V56H94.841V35.648C94.841 34.1973 94.457 33.0453 93.689 32.192C92.9637 31.296 91.9183 30.848 90.553 30.848C88.9743 30.848 87.6943 31.36 86.713 32.384C85.7317 33.408 85.241 34.6667 85.241 36.16V56H72.505V22.208H82.937L83.769 27.328C85.0917 25.536 86.8197 24.1067 88.953 23.04C91.129 21.9733 93.4117 21.44 95.801 21.44ZM123.512 25.344C125.944 22.7413 129.102 21.44 132.984 21.44C137.55 21.44 141.07 22.9333 143.544 25.92C146.019 28.864 147.257 33.2373 147.257 39.04C147.257 44.8853 146.019 49.3013 143.544 52.288C141.07 55.2747 137.55 56.768 132.984 56.768C128.291 56.768 124.707 54.912 122.232 51.2L121.144 56H110.776V9.6H123.512V25.344ZM129.016 30.848C127.139 30.848 125.731 31.5307 124.792 32.896C123.854 34.2187 123.384 35.9467 123.384 38.08V40.192C123.384 42.3253 123.854 44.0533 124.792 45.376C125.731 46.6987 127.139 47.36 129.016 47.36C132.686 47.36 134.52 45.184 134.52 40.832V37.44C134.52 33.0453 132.686 30.848 129.016 30.848ZM173.432 56L172.6 50.88C171.277 52.7147 169.528 54.1653 167.352 55.232C165.219 56.256 162.957 56.768 160.568 56.768C156.643 56.768 153.699 55.68 151.736 53.504C149.773 51.328 148.792 48.192 148.792 44.096V22.208H161.528V42.56C161.528 44.0107 161.891 45.184 162.616 46.08C163.384 46.9333 164.451 47.36 165.816 47.36C167.395 47.36 168.675 46.848 169.656 45.824C170.637 44.8 171.128 43.5413 171.128 42.048V22.208H183.864V56H173.432Z" fill="#1C1917"/>
<path d="M203.757 20.8837C203.056 22.1299 202.208 23.4309 201.214 24.7867C200.243 26.1149 199.148 27.4424 197.929 28.7693C196.733 30.0685 195.47 31.3119 194.139 32.4993C192.808 33.6868 191.433 34.7768 190.013 35.7693C189.812 35.2961 189.511 34.753 189.108 34.1399C188.728 33.4991 188.358 32.9834 188 32.5927C189.938 31.325 191.81 29.821 193.614 28.0805C195.419 26.3122 197.044 24.4736 198.49 22.5646C199.958 20.628 201.122 18.7731 201.983 17L205.254 17.0169C206.149 18.6046 207.155 20.1513 208.274 21.6568C209.394 23.1346 210.592 24.5434 211.869 25.8832C213.146 27.1951 214.458 28.3962 215.803 29.4863C217.149 30.5764 218.495 31.4999 219.842 32.2568C219.435 32.7546 219.04 33.3219 218.655 33.9588C218.293 34.5679 217.977 35.1635 217.705 35.7453C216.404 34.8221 215.081 33.7737 213.735 32.6003C212.413 31.4269 211.124 30.1843 209.869 28.8725C208.637 27.5607 207.495 26.2217 206.442 24.8553C205.39 23.489 204.495 22.1651 203.757 20.8837ZM192.287 41.572L215.324 41.6906L215.312 45.1485L192.275 45.0298L192.287 41.572ZM193.904 32.2898L213.938 32.393L213.926 35.9342L193.892 35.831L193.904 32.2898ZM189.489 51.098L218.293 51.2464L218.281 54.7876L189.477 54.6392L189.489 51.098ZM202.061 33.8733L205.434 33.8907L205.369 53.1379L201.996 53.1205L202.061 33.8733Z" fill="#1C1917"/>
<path d="M240.357 19.739L250.375 19.7906L250.362 23.4984L243.482 23.463L243.372 56L240.235 55.9838L240.357 19.739ZM222.475 21.5633L238.698 21.6469L238.687 25.1047L222.463 25.0212L222.475 21.5633ZM221.626 33.1408L239.098 33.2308L239.085 36.8137L221.614 36.7237L221.626 33.1408ZM229.032 17.4726L232.135 17.4886L232.114 23.7794L229.011 23.7634L229.032 17.4726ZM224.482 26.3647L227.149 25.6702C227.506 26.6719 227.817 27.7845 228.082 29.008C228.348 30.2036 228.525 31.2461 228.612 32.1353L225.809 32.9124C225.767 32.0234 225.614 30.9672 225.348 29.7438C225.105 28.5205 224.816 27.3941 224.482 26.3647ZM233.896 25.4967L236.928 26.3455C236.565 27.5379 236.19 28.7442 235.803 29.9643C235.439 31.1567 235.076 32.1825 234.713 33.0416L232.186 32.237C232.413 31.6272 232.629 30.9339 232.834 30.1573C233.039 29.3529 233.233 28.5345 233.416 27.7023C233.621 26.8701 233.781 26.1349 233.896 25.4967ZM224.807 50.1968L235.633 50.2525L235.622 53.7104L224.795 53.6546L224.807 50.1968ZM223.728 40.0258L237.354 40.096L237.301 55.8437L234.198 55.8278L234.24 43.4962L226.684 43.4573L226.642 55.9555L223.674 55.9402L223.728 40.0258ZM249.532 19.7863L250.139 19.7894L250.645 19.667L253 21.4706C252.341 23.467 251.614 25.5879 250.82 27.8336C250.048 30.0793 249.288 32.1168 248.539 33.9461C249.592 35.2291 250.386 36.4553 250.922 37.6245C251.48 38.7939 251.858 39.9069 252.057 40.9633C252.279 42.0199 252.388 43.0342 252.384 44.0063C252.38 45.395 252.241 46.5747 251.968 47.5453C251.694 48.516 251.242 49.2636 250.611 49.7881C250.002 50.2849 249.248 50.6143 248.348 50.7763C247.943 50.8298 247.493 50.8552 246.998 50.8527C246.503 50.8501 246.009 50.8476 245.514 50.845C245.494 50.2894 245.417 49.6363 245.285 48.8857C245.152 48.1352 244.952 47.4814 244.684 46.9246C245.156 46.9825 245.583 47.0264 245.965 47.0562C246.37 47.0582 246.719 47.0461 247.011 47.0199C247.281 46.9935 247.529 46.9531 247.754 46.8987C247.979 46.8166 248.193 46.7204 248.395 46.6104C248.734 46.3344 248.96 45.9328 249.074 45.4057C249.211 44.8787 249.28 44.2402 249.283 43.4904C249.287 42.2683 249.011 40.8921 248.454 39.3616C247.919 37.8313 246.879 36.2011 245.333 34.4711C245.719 33.4177 246.105 32.2809 246.492 31.0609C246.9 29.8409 247.298 28.6209 247.684 27.4008C248.071 26.1807 248.412 25.0299 248.708 23.9482C249.027 22.8388 249.3 21.8959 249.527 21.1194L249.532 19.7863Z" fill="#1C1917"/>
</svg>
