<svg width="614" height="587" viewBox="0 0 614 587" fill="none" xmlns="http://www.w3.org/2000/svg">
<path d="M40.292 148.057L154.937 38.4536C134.583 49.5728 115.683 62.8761 98.5835 77.9664L81.6223 94.1819C65.8379 110.53 51.9226 128.598 40.292 148.057Z" fill="#E9E9E7"/>
<path d="M6.0918 235.157L246.043 5.75781C239.397 7.01534 232.889 8.53761 226.381 10.1923L10.7301 216.361C8.99934 222.582 7.40717 228.803 6.0918 235.157Z" fill="#E9E9E7"/>
<path d="M0 293.467C0 294.063 0 294.725 0 295.32L308.973 0C308.35 0 307.658 0 307.035 0C302.535 0 298.104 0.132371 293.743 0.264742L0.346065 280.759C0.138375 284.995 0 289.231 0 293.467Z" fill="#E9E9E7"/>
<path d="M4.77726 345.224L361.104 4.56684C356.812 3.8388 352.45 3.17695 348.158 2.64746L2.76953 332.848C3.32337 336.951 4.01573 341.121 4.77726 345.224Z" fill="#E9E9E7"/>
<path d="M16.4065 388.443L406.31 15.6858C402.571 14.4283 398.763 13.3031 394.956 12.2441L12.8066 377.589C13.9835 381.229 15.1604 384.869 16.4065 388.443Z" fill="#E9E9E7"/>
<path d="M33.3686 426.632L446.325 31.8349C443.002 30.2465 439.61 28.658 436.217 27.1357L28.4531 416.969C30.0454 420.212 31.6379 423.455 33.3686 426.632Z" fill="#E9E9E7"/>
<path d="M54.6919 460.652L481.91 52.2206C478.933 50.235 475.956 48.3156 472.91 46.4624L48.6689 452.048C50.6074 454.96 52.615 457.806 54.6919 460.652Z" fill="#E9E9E7"/>
<path d="M79.8917 490.965L513.548 76.3781C510.917 74.1278 508.287 71.8775 505.587 69.6934L72.8994 483.354C75.184 485.869 77.5379 488.45 79.8917 490.965Z" fill="#E9E9E7"/>
<path d="M108.9 517.638L541.518 104.044C539.233 101.463 536.879 98.8813 534.525 96.3662L100.869 510.953C103.5 513.203 106.13 515.454 108.9 517.638Z" fill="#E9E9E7"/>
<path d="M141.576 540.737L565.679 135.283C563.74 132.371 561.733 129.525 559.656 126.679L132.576 535.045C135.553 536.964 138.53 538.883 141.576 540.737Z" fill="#E9E9E7"/>
<path d="M178.337 559.997L585.755 170.494C584.163 167.251 582.571 164.008 580.84 160.831L168.16 555.364C171.552 556.952 174.944 558.474 178.337 559.997Z" fill="#E9E9E7"/>
<path d="M219.666 574.888L601.4 209.941C600.292 206.301 599.046 202.66 597.8 199.086L208.312 571.447C212.051 572.704 215.858 573.83 219.666 574.888Z" fill="#E9E9E7"/>
<path d="M266.604 584.419L611.369 254.814C610.815 250.645 610.123 246.475 609.361 242.372L253.589 582.499C257.881 583.228 262.242 583.889 266.604 584.419Z" fill="#E9E9E7"/>
<path d="M307.034 587C311.811 587 316.519 586.868 321.157 586.669L613.654 307.035C613.861 302.534 614 298.034 614 293.533C614 293.136 614 292.805 614 292.408L305.857 587C306.204 586.934 306.619 587 307.034 587Z" fill="#E9E9E7"/>
<path d="M388.727 576.41L602.993 371.566C604.793 365.344 606.386 359.056 607.77 352.703L368.996 580.977C375.642 579.653 382.219 578.131 388.727 576.41Z" fill="#E9E9E7"/>
<path d="M572.601 440.664L460.933 547.422C507.178 521.742 545.739 484.876 572.601 440.664Z" fill="#E9E9E7"/>
</svg>
