<svg width="116" height="116" viewBox="0 0 116 116" fill="none" xmlns="http://www.w3.org/2000/svg">
<circle cx="58" cy="58" r="57.5" fill="#ECECEC" stroke="#CACACA"/>
<rect x="20" y="32" width="76" height="52" rx="4" fill="#CACACA"/>
<rect x="25" y="36" width="66" height="44" rx="4" fill="#ECECEC"/>
<path d="M72.7527 41.8405C73.1505 41.3931 73.8495 41.3931 74.2473 41.8405L105.362 76.8355C105.935 77.4804 105.478 78.5 104.615 78.5H42.3853C41.5223 78.5 41.0646 77.4804 41.6379 76.8355L72.7527 41.8405Z" fill="#CACACA"/>
<path d="M48.7237 55.9562C49.1239 55.4633 49.8761 55.4633 50.2763 55.9562L67.6619 77.3697C68.1926 78.0233 67.7274 79 66.8856 79H32.1144C31.2726 79 30.8074 78.0233 31.3381 77.3697L48.7237 55.9562Z" fill="#CACACA"/>
<path d="M87 36C89.2091 36 91 37.7909 91 40V76C91 78.2091 89.2091 80 87 80H29C26.7909 80 25 78.2091 25 76V40C25 37.7909 26.7909 36 29 36H87ZM33 40C30.7909 40 29 41.7909 29 44V72C29 74.2091 30.7909 76 33 76H83C85.2091 76 87 74.2091 87 72V44C87 41.7909 85.2091 40 83 40H33Z" fill="#ECECEC"/>
<circle cx="39.5" cy="47.5" r="5.5" fill="#CACACA"/>
<rect x="96" y="61" width="14" height="21" fill="#ECECEC"/>
</svg>
