<svg width="65" height="65" viewBox="0 0 65 65" fill="none" xmlns="http://www.w3.org/2000/svg">
<circle cx="32.1331" cy="32.1331" r="31.1331" fill="#F87171" stroke="black" stroke-width="2"/>
<circle cx="32.1331" cy="32.1331" r="31.1331" fill="#F87171" stroke="black" stroke-width="2"/>
<path d="M22.357 21.9041C21.934 22.7461 21.4228 23.6251 20.8234 24.5411C20.2375 25.4385 19.5771 26.3354 18.842 27.2319C18.1206 28.1096 17.3586 28.9497 16.5561 29.7519C15.7535 30.5542 14.924 31.2906 14.0676 31.9612C13.9465 31.6415 13.7645 31.2745 13.5217 30.8603C13.2924 30.4274 13.0697 30.079 12.8535 29.815C14.0224 28.9586 15.1511 27.9424 16.2396 26.7665C17.3281 25.5718 18.3083 24.3296 19.1801 23.0399C20.0656 21.7314 20.7678 20.4782 21.2867 19.2803L23.2599 19.2917C23.7992 20.3644 24.4063 21.4093 25.0813 22.4265C25.7564 23.425 26.4791 24.3768 27.2494 25.2819C28.0197 26.1683 28.8106 26.9798 29.6221 27.7163C30.4336 28.4528 31.2454 29.0767 32.0576 29.588C31.8125 29.9244 31.574 30.3077 31.3421 30.738C31.1239 31.1495 30.9328 31.5519 30.7689 31.945C29.9842 31.3212 29.1862 30.6129 28.3749 29.8201C27.5771 29.0274 26.7999 28.1879 26.0431 27.3016C25.2999 26.4153 24.6109 25.5106 23.9763 24.5875C23.3417 23.6643 22.8019 22.7699 22.357 21.9041ZM15.4391 35.8816L29.3328 35.9618L29.3258 38.2979L15.432 38.2178L15.4391 35.8816ZM16.4141 29.6104L28.4974 29.6801L28.4901 32.0726L16.4069 32.0028L16.4141 29.6104ZM13.7516 42.3176L31.1238 42.4178L31.1166 44.8103L13.7444 44.7101L13.7516 42.3176ZM21.3338 30.6802L23.368 30.6919L23.3288 43.6958L21.2946 43.684L21.3338 30.6802Z" fill="#991B1B"/>
<path d="M44.431 21.1308L50.4727 21.1657L50.4651 23.6707L46.3153 23.6468L46.249 45.6295L44.3572 45.6185L44.431 21.1308ZM33.6457 22.3634L43.4303 22.4198L43.4233 24.756L33.6387 24.6995L33.6457 22.3634ZM33.1339 30.1853L43.6712 30.2462L43.6639 32.6668L33.1266 32.606L33.1339 30.1853ZM37.6005 19.5996L39.472 19.6104L39.4592 23.8606L37.5877 23.8498L37.6005 19.5996ZM34.8565 25.6073L36.465 25.1381C36.6799 25.8148 36.8675 26.5665 37.0278 27.3931C37.1881 28.2009 37.2945 28.9052 37.3469 29.506L35.6569 30.031C35.6316 29.4304 35.5388 28.7168 35.3785 27.8902C35.2319 27.0637 35.0578 26.3027 34.8565 25.6073ZM40.5339 25.0208L42.363 25.5943C42.1436 26.3999 41.9173 27.2149 41.6843 28.0392C41.4649 28.8448 41.2458 29.5379 41.0271 30.1183L39.503 29.5747C39.6399 29.1627 39.7701 28.6943 39.8938 28.1696C40.0174 27.6261 40.1344 27.0732 40.2446 26.5109C40.3683 25.9487 40.4648 25.452 40.5339 25.0208ZM35.0521 41.7087L41.582 41.7463L41.5749 44.0825L35.0451 44.0448L35.0521 41.7087ZM34.4015 34.837L42.6198 34.8844L42.5877 45.5239L40.7162 45.5131L40.7413 37.1816L36.1847 37.1553L36.1592 45.5994L34.3691 45.5891L34.4015 34.837ZM49.9641 21.1627L50.3303 21.1649L50.6356 21.0822L52.056 22.3007C51.6586 23.6495 51.2203 25.0825 50.7411 26.5997C50.2754 28.1169 49.8169 29.4935 49.3657 30.7294C50.0005 31.5962 50.4794 32.4246 50.8025 33.2146C51.1392 34.0047 51.3675 34.7566 51.4874 35.4704C51.6208 36.1842 51.6866 36.8695 51.6846 37.5262C51.6818 38.4645 51.598 39.2615 51.4333 39.9173C51.2686 40.5731 50.9958 41.0782 50.615 41.4326C50.2478 41.7682 49.7928 41.9908 49.25 42.1002C49.0058 42.1363 48.7345 42.1535 48.4362 42.1518C48.1378 42.1501 47.8395 42.1484 47.5411 42.1466C47.5287 41.7713 47.4826 41.33 47.4027 40.8229C47.3229 40.3158 47.2021 39.8741 47.0405 39.4979C47.3252 39.5371 47.5828 39.5667 47.8133 39.5868C48.0574 39.5882 48.2676 39.5801 48.444 39.5623C48.6068 39.5445 48.756 39.5172 48.8918 39.4804C49.0275 39.4249 49.1566 39.36 49.2789 39.2856C49.4828 39.0992 49.6193 38.8279 49.6882 38.4717C49.7706 38.1157 49.8126 37.6843 49.8141 37.1777C49.8166 36.352 49.6499 35.4222 49.314 34.3882C48.9916 33.3543 48.3643 32.2529 47.4321 31.0841C47.6648 30.3724 47.8976 29.6044 48.1307 28.7801C48.3772 27.9558 48.6171 27.1316 48.8501 26.3073C49.0831 25.483 49.2889 24.7054 49.4674 23.9746C49.6595 23.2251 49.8242 22.5881 49.9614 22.0634L49.9641 21.1627Z" fill="#991B1B"/>
</svg>
